#!OML:ASF F:\VICON\USERDATA\INSTALL\rory3\rory3.ASF
:FULLY-SPECIFIED
:DEGREES
81
root -0.0693281908315195 17.814061238900756 19.455820162724606 3.6291044690998673 -3.8009355246333936 -5.2252260221446445
lfemur -4.102491730921093 3.942317374708277 -15.045067699274465
ltibia 76.7717773379387
lfoot 13.772132133044526 -10.30142248689138
ltoes -8.7200063741805
rfemur -33.40529463997393 -0.9433573275660259 31.679021961782873
rtibia 51.07603654623516
rfoot -19.71409656168441 -13.431100467234538
rtoes -1.4458340607967806
lowerback nan -0.843175985165303 1.5395555105693775
upperback -0.2633080631968726 -0.8579275787066665 3.1884729222959747
thorax -8.993797618277325 0.19328066643874164 2.444076704872221
lowerneck -23.18224578686911 -2.5111242740784956 -0.8893080011663359
upperneck 12.918539336892358 -3.5282179986445232 1.9716514903406819
head 8.016719801990659 -1.3007747269912877 0.3216106973276621
lclavicle 5.870280809305436e-15 5.970714204400446e-16
lhumerus -45.57291995097612 -16.407673361621676 99.97193393747612
lradius 93.28714177497561
lwrist 27.707366153573037
lhand -25.702919963648274 -0.11495768145054641
lfingers nan
lthumb 0.811457529690654 29.683859751273108
rclavicle 1.2753323896369262e-14 5.289354761396219e-15
rhumerus -50.118317359935496 0.251598535814221 -92.19566248241907
rradius 108.60794766072604
rwrist -10.371891126528716
rhand -14.192130636705212 nan
rfingers nan
rthumb 12.010724299143952 9.170659633224803
82
root -0.10721971831563618 17.73879991676952 19.789672370726624 3.5398242542131797 -3.5397828329448187 -6.128220478693157
lfemur -6.645972708568323 4.905606063687926 -12.494142072316716
ltibia 79.63712347799095
lfoot 12.423781834011752 -10.955513375832851
ltoes -11.320464474495557
rfemur -31.955376901465215 -0.6396692597230593 33.09416633148442
rtibia 51.897502299845485
rfoot -21.454285709593975 -16.716306043141973
rtoes -1.8427877887429611
lowerback nan -0.8087485554731276 2.309503955117308
upperback -0.243693350369671 -0.5366276325028123 3.5226169780235077
thorax -9.430687394878113 0.3120831608032252 2.2800797917227253
lowerneck -22.70835499732807 -2.68031760480436 -1.0899160604920057
upperneck 12.391978641463796 -3.6704625861408124 2.0335946718687756
head 7.850397436562408 -1.3640085812145244 0.3616379124265091
lclavicle -2.0382414931060857e-14 -3.1931482746349564e-14
lhumerus -47.47534843140542 -14.946396061482753 100.03479696203563
lradius 92.81648359461468
lwrist 27.12032057739921
lhand -25.68203800744147 -0.07201409644709877
lfingers nan
lthumb 0.8282269083116713 29.697746770156854
rclavicle -1.367600637056748e-14 -2.7106806150616835e-14
rhumerus -48.46897634853622 1.3999439349975376 -92.37261246979953
rradius 108.40102324877012
rwrist -12.233506670174549
rhand -13.897912504771867 nan
rfingers nan
rthumb 12.292927555818682 8.507592551896181
83
root -0.1339827858510898 17.683847296750233 20.078899366856568 3.849309704234372 -3.28962725970971 -7.045819221138445
lfemur -9.511796167750864 5.929495522458169 -9.982570806181062
ltibia 82.38924138263474
lfoot 10.75074617734339 -11.25569706169697
ltoes -12.148430698732003
rfemur -30.546771522125837 -0.1672689096873532 34.48521951113325
rtibia 52.360621006061805
rfoot -22.963097661825994 -19.657766326763003
rtoes -4.051555538947317
lowerback nan -0.8492463142190861 3.2301006753436283
upperback -0.522889971331747 -0.28519361445709435 3.747628565918384
thorax -9.848206007538316 0.39653752402448417 1.9524865526603072
lowerneck -21.488928787342576 -2.8213957931821403 -1.0556421236113223
upperneck 11.682374870179249 -3.8559865496786077 2.093572569700399
head 7.544082453602119 -1.4402871223650755 0.37866285516610454
lclavicle -7.892932050658128e-15 -1.5298185615982442e-14
lhumerus -49.782388333912344 -13.464265541810779 99.96962497390845
lradius 92.68047682809299
lwrist 26.451085926792743
lhand -25.828558560425666 0.5278024711474405
lfingers nan
lthumb 0.7057652353970107 30.318738231654923
rclavicle -4.4272564663559017e-16 -9.89674141643216e-15
rhumerus -47.302930369060014 2.5257630968049263 -92.76317341222246
rradius 108.45756758337974
rwrist -12.335280051280503
rhand -13.787068301578486 nan
rfingers nan
rthumb 12.406350486566376 8.235905400362373
84
root -0.15338663506495118 17.657798655744024 19.951901576658734 4.189605421678576 -2.823377855049217 -7.595477445190496
lfemur -12.60025463187092 6.750719748213233 -8.015334885764785
ltibia 84.73826622923393
lfoot 9.304958180238973 -11.362882583249167
ltoes -9.462790093119068
rfemur -29.119628883260752 0.2951161403435001 35.49764401331078
rtibia 52.497310740885545
rfoot -23.993420790291907 -22.20178813578934
rtoes -7.091433978161219
lowerback nan -0.9547177999842965 4.040300521175974
upperback -0.6836568236950158 -0.1682341492659638 3.8748175196962844
thorax -9.908721263439976 0.42156364889105197 1.578733309727424
lowerneck -20.7747674058398 -2.953135265985307 -1.0450109905719263
upperneck 10.96730668613732 -4.07990189099248 2.2358506558114732
head 7.28517245442564 -1.5051466222353467 0.42275916050277107
lclavicle -2.76106919378985e-14 -6.587105697352855e-14
lhumerus -51.84882693238075 -12.337044236434227 99.82883282590929
lradius 92.59721750337529
lwrist 25.839855129284583
lhand -25.3511885595023 2.3557354974676237
lfingers nan
lthumb 1.189027920804263 32.18909242467185
rclavicle -1.9914795568249433e-14 -6.022052412348506e-14
rhumerus -46.05739960307033 3.6182989274315887 -93.07265017206892
rradius 108.81578638322345
rwrist -11.822814235656994
rhand -13.138578533169719 nan
rfingers nan
rthumb 13.040371624716641 8.459822355428038
85
root -0.17140312765659882 17.640449029937848 19.746986497952776 4.256507889601526 -2.3347319059579004 -7.435839400570878
lfemur -15.94316992774944 7.522197451748366 -7.184499659393989
ltibia 86.64459261006641
lfoot 8.34838857073943 -11.667273751853148
ltoes -8.158104355350934
rfemur -27.560956193872975 0.6813430356690244 35.530803448842455
rtibia 52.543099901891665
rfoot -24.97363228870506 -23.714257482594558
rtoes -8.361930189517153
lowerback nan -1.02115819691141 4.098649729696126
upperback -0.589701601380932 -0.1584766904520667 3.757455931246799
thorax -9.74327912842725 0.4198933733637665 1.3920222899358823
lowerneck -21.00326162988029 -3.037855713054429 -1.0300696486625163
upperneck 10.549402793605168 -4.25483053819768 2.350962997339413
head 7.19732435043261 -1.541331307801828 0.4505659680712042
lclavicle -1.2360136932966628e-14 -5.681564170337017e-14
lhumerus -53.53324173647558 -11.587333945449297 99.59640691620199
lradius 92.52454460255314
lwrist 25.83064877134739
lhand -23.84583870544029 5.175550066523326
lfingers nan
lthumb 2.650337917905022 35.0756693609359
rclavicle -4.759915535269224e-15 -5.2309584433877795e-14
rhumerus -44.42057901981189 4.671200865399569 -93.31579917000369
rradius 109.29201257591464
rwrist -11.47940175455516
rhand -12.531268734208115 nan
rfingers nan
rthumb 13.623542837517777 8.390447346640022
86
root -0.19571148087555906 17.62011457929875 20.144950212384867 4.30519220948325 -2.4425515674958245 -7.212360349701645
lfemur -19.068679755623027 8.828812137618048 -6.685665460801188
ltibia 88.24275877180736
lfoot 6.834673679631103 -11.993690285577602
ltoes -9.53658631136899
rfemur -26.063324016605733 1.443197543384286 35.29693571947831
rtibia 52.507458724458445
rfoot -25.48416630598386 -24.783013692308458
rtoes -10.423761570358913
lowerback nan -0.7269225855520903 3.64635990994251
upperback -0.3527550764376971 0.1731254926192547 3.61367442756716
thorax -9.414078718843191 0.5940112487304399 1.3447502330584
lowerneck -21.863684660197407 -3.192240359564617 -0.9340825718495473
upperneck 10.485060398361464 -4.548343258948026 2.372168355363922
head 7.264405648377981 -1.637615116452146 0.4145406897667929
lclavicle -7.787590144517697e-15 -3.7931413686128995e-14
lhumerus -54.8671745341199 -11.341244255267739 99.3787543531407
lradius 92.83260672817508
lwrist 26.52688633630364
lhand -23.878538315232056 4.634672131680005
lfingers nan
lthumb 2.613648657631221 34.528263343482
rclavicle -1.9898912651546352e-16 -3.387790239746681e-14
rhumerus -42.598086782271594 5.650140718534223 -93.4687647769981
rradius 109.94615275046993
rwrist -11.687796712528197
rhand -13.039033674860319 nan
rfingers nan
rthumb 13.136019116187454 8.15125138906537
87
root -0.21630046272068834 17.605087870732724 20.36676296195116 4.402695056954602 -2.2688897019767307 -6.73677511465909
lfemur -22.289769421696917 9.778361678137902 -6.716772907068522
ltibia 89.43984379955954
lfoot 5.076156552602936 -11.877862371403594
ltoes -11.63404054238968
rfemur -24.509713937073357 2.028021437281966 34.749751978529964
rtibia 52.33901971271954
rfoot -25.798824848724266 -25.461252871582246
rtoes -12.893897851944871
lowerback nan -0.4781500215398381 2.9463414076287675
upperback -0.24523235254650289 0.3892363281857161 3.3705757641788763
thorax -9.080800908522841 0.7076060063872179 1.3773456919954474
lowerneck -22.686177012620938 -3.3764572396385044 -0.9385193463676424
upperneck 10.620182862594021 -4.875861821715293 2.4565521378847888
head 7.383285672856096 -1.7478876733328061 0.4044649378498527
lclavicle 5.130572438548765e-15 -4.775384975463258e-15
lhumerus -56.43610299554605 -11.08386179919743 99.1946086787062
lradius 93.77951063841014
lwrist 27.143786146074966
lhand -25.28112163620363 0.6988464055868169
lfingers nan
lthumb 1.2158348561259564 30.481026990065242
rclavicle 1.284956322815563e-14 -1.0154429198708174e-15
rhumerus -41.025927532958875 6.647799843527574 -93.65287015192001
rradius 110.70774266189602
rwrist -12.953861490884844
rhand -14.07326159555133 nan
rfingers nan
rthumb 12.142729335551296 8.082486581762542
